<svg width="130" height="130" viewBox="0 0 130 130" fill="none" xmlns="http://www.w3.org/2000/svg">
<g id="Frame">
<path id="Vector" d="M58.8012 44.1735C54.2886 41.674 48.75 44.9378 48.75 50.0965V79.9052C48.75 85.064 54.2886 88.3275 58.8012 85.8283L89.9893 68.5545C91.2817 67.839 92.0834 66.4778 92.0834 65.0006C92.0834 63.5235 91.2817 62.1629 89.9893 61.4468L58.8012 44.1735ZM65 10.834C35.0846 10.834 10.8334 35.0852 10.8334 65.0006C10.8334 94.9158 35.0846 119.167 65 119.167C94.9152 119.167 119.167 94.9158 119.167 65.0006C119.167 35.0852 94.9152 10.834 65 10.834ZM18.9584 65.0006C18.9584 39.5725 39.5719 18.959 65 18.959C90.428 18.959 111.042 39.5725 111.042 65.0006C111.042 90.4286 90.428 111.042 65 111.042C39.5719 111.042 18.9584 90.4286 18.9584 65.0006Z" fill="white"/>
</g>
</svg>
