<svg width="658" height="205" viewBox="0 0 658 205" fill="none" xmlns="http://www.w3.org/2000/svg">
<path d="M615.2 153.351C607.8 153.351 601.4 151.801 596 148.701C590.7 145.601 586.55 141.201 583.55 135.501C580.55 129.801 579.05 123.101 579.05 115.401C579.05 109.501 579.9 104.251 581.6 99.6512C583.3 95.0512 585.7 91.1012 588.8 87.8012C592 84.4012 595.8 81.8512 600.2 80.1512C604.7 78.3512 609.7 77.4512 615.2 77.4512C622.5 77.4512 628.8 79.0012 634.1 82.1012C639.5 85.2012 643.7 89.6012 646.7 95.3012C649.7 100.901 651.2 107.601 651.2 115.401C651.2 121.201 650.35 126.451 648.65 131.151C646.95 135.851 644.5 139.851 641.3 143.151C638.2 146.451 634.4 149.001 629.9 150.801C625.5 152.501 620.6 153.351 615.2 153.351ZM615.2 141.651C619.3 141.651 622.9 140.651 626 138.651C629.1 136.651 631.5 133.701 633.2 129.801C635 125.901 635.9 121.101 635.9 115.401C635.9 106.801 634 100.301 630.2 95.9012C626.4 91.5012 621.4 89.3012 615.2 89.3012C611 89.3012 607.35 90.3012 604.25 92.3012C601.15 94.2012 598.7 97.1012 596.9 101.001C595.2 104.901 594.35 109.701 594.35 115.401C594.35 123.901 596.25 130.401 600.05 134.901C603.85 139.401 608.9 141.651 615.2 141.651Z" fill="url(#paint0_linear_1017_1186)"/>
<path d="M545.449 153.051C543.049 153.051 541.149 152.401 539.749 151.101C538.449 149.701 537.799 147.801 537.799 145.401V90.501H529.399C527.499 90.501 525.999 90.001 524.899 89.001C523.799 87.901 523.249 86.451 523.249 84.651C523.249 82.751 523.799 81.301 524.899 80.301C525.999 79.301 527.499 78.801 529.399 78.801H542.149L537.799 82.851V77.451C537.799 67.551 540.249 60.101 545.149 55.101C550.049 50.001 557.199 47.001 566.599 46.101L571.249 45.801C572.949 45.601 574.299 45.851 575.299 46.551C576.299 47.251 576.949 48.151 577.249 49.251C577.549 50.351 577.549 51.501 577.249 52.701C577.049 53.801 576.549 54.801 575.749 55.701C574.949 56.601 573.949 57.101 572.749 57.201L569.899 57.351C563.999 57.851 559.699 59.551 556.999 62.451C554.299 65.251 552.949 69.551 552.949 75.351V81.201L550.849 78.801H567.499C569.599 78.801 571.149 79.301 572.149 80.301C573.249 81.301 573.799 82.751 573.799 84.651C573.799 86.451 573.249 87.901 572.149 89.001C571.149 90.001 569.599 90.501 567.499 90.501H552.949V145.401C552.949 150.501 550.449 153.051 545.449 153.051Z" fill="url(#paint1_linear_1017_1186)"/>
<path d="M454.523 153.051C452.123 153.051 450.273 152.401 448.973 151.101C447.673 149.701 447.023 147.801 447.023 145.401V85.4012C447.023 82.9012 447.673 81.0012 448.973 79.7012C450.273 78.4012 452.073 77.7512 454.373 77.7512C456.773 77.7512 458.573 78.4012 459.773 79.7012C461.073 81.0012 461.723 82.9012 461.723 85.4012V97.1012L460.073 94.4012C462.273 88.8012 465.723 84.6012 470.423 81.8012C475.123 78.9012 480.523 77.4512 486.623 77.4512C492.423 77.4512 497.223 78.5512 501.023 80.7512C504.923 82.8512 507.823 86.1012 509.723 90.5012C511.623 94.8012 512.573 100.251 512.573 106.851V145.401C512.573 147.801 511.923 149.701 510.623 151.101C509.323 152.401 507.473 153.051 505.073 153.051C502.573 153.051 500.673 152.401 499.373 151.101C498.073 149.701 497.423 147.801 497.423 145.401V107.751C497.423 101.451 496.173 96.8512 493.673 93.9512C491.273 91.0512 487.473 89.6012 482.273 89.6012C476.173 89.6012 471.273 91.5012 467.573 95.3012C463.973 99.1012 462.173 104.201 462.173 110.601V145.401C462.173 150.501 459.623 153.051 454.523 153.051Z" fill="url(#paint2_linear_1017_1186)"/>
<path d="M416.336 153.051C413.836 153.051 411.886 152.351 410.486 150.951C409.186 149.551 408.536 147.601 408.536 145.101V53.1512C408.536 50.5512 409.186 48.6012 410.486 47.3012C411.886 45.9012 413.836 45.2012 416.336 45.2012C418.836 45.2012 420.736 45.9012 422.036 47.3012C423.436 48.6012 424.136 50.5512 424.136 53.1512V145.101C424.136 147.601 423.486 149.551 422.186 150.951C420.886 152.351 418.936 153.051 416.336 153.051Z" fill="url(#paint3_linear_1017_1186)"/>
<path d="M360.67 153.351C352.67 153.351 345.77 151.851 339.97 148.851C334.27 145.751 329.82 141.401 326.62 135.801C323.52 130.101 321.97 123.351 321.97 115.551C321.97 107.951 323.52 101.301 326.62 95.6012C329.72 89.9012 333.97 85.4512 339.37 82.2512C344.77 79.0512 350.92 77.4512 357.82 77.4512C362.92 77.4512 367.47 78.3012 371.47 80.0012C375.47 81.6012 378.87 84.0012 381.67 87.2012C384.57 90.3012 386.72 94.1012 388.12 98.6012C389.62 103.101 390.37 108.151 390.37 113.751C390.37 115.451 389.87 116.751 388.87 117.651C387.87 118.451 386.37 118.851 384.37 118.851H333.97V109.551H380.17L377.62 111.651C377.62 106.651 376.87 102.401 375.37 98.9012C373.97 95.4012 371.82 92.7512 368.92 90.9512C366.12 89.0512 362.62 88.1012 358.42 88.1012C353.72 88.1012 349.72 89.2012 346.42 91.4012C343.22 93.6012 340.77 96.6512 339.07 100.551C337.37 104.451 336.52 109.001 336.52 114.201V115.101C336.52 123.901 338.57 130.551 342.67 135.051C346.87 139.451 352.92 141.651 360.82 141.651C363.82 141.651 366.97 141.251 370.27 140.451C373.67 139.651 376.87 138.301 379.87 136.401C381.57 135.401 383.07 134.951 384.37 135.051C385.77 135.151 386.87 135.601 387.67 136.401C388.57 137.201 389.12 138.201 389.32 139.401C389.52 140.601 389.32 141.851 388.72 143.151C388.12 144.351 387.07 145.451 385.57 146.451C382.17 148.751 378.22 150.501 373.72 151.701C369.22 152.801 364.87 153.351 360.67 153.351Z" fill="url(#paint4_linear_1017_1186)"/>
<path d="M279.038 153.051C276.538 153.051 274.638 152.401 273.338 151.101C272.038 149.701 271.388 147.801 271.388 145.401V85.4007C271.388 82.9007 272.038 81.0007 273.338 79.7007C274.638 78.4007 276.438 77.7507 278.738 77.7507C281.138 77.7507 282.938 78.4007 284.138 79.7007C285.438 81.0007 286.088 82.9007 286.088 85.4007V96.3507H284.588C286.188 90.3507 289.138 85.8007 293.438 82.7007C297.738 79.6007 303.238 77.8007 309.938 77.3007C311.738 77.2007 313.138 77.6507 314.138 78.6507C315.238 79.6507 315.838 81.2007 315.938 83.3007C316.138 85.4007 315.688 87.1007 314.588 88.4007C313.488 89.6007 311.788 90.3007 309.488 90.5007L306.638 90.8007C300.138 91.4007 295.188 93.4507 291.788 96.9507C288.388 100.451 286.688 105.251 286.688 111.351V145.401C286.688 147.801 286.038 149.701 284.738 151.101C283.538 152.401 281.638 153.051 279.038 153.051Z" fill="url(#paint5_linear_1017_1186)"/>
<path d="M214.222 153.351C209.122 153.351 204.522 152.351 200.422 150.351C196.422 148.351 193.272 145.651 190.972 142.251C188.672 138.851 187.522 135.001 187.522 130.701C187.522 125.301 188.872 121.051 191.572 117.951C194.372 114.751 198.922 112.501 205.222 111.201C211.622 109.801 220.222 109.101 231.022 109.101H238.072V118.401H231.172C223.972 118.401 218.272 118.751 214.072 119.451C209.872 120.151 206.872 121.351 205.072 123.051C203.372 124.651 202.522 126.901 202.522 129.801C202.522 133.601 203.822 136.701 206.422 139.101C209.022 141.401 212.622 142.551 217.222 142.551C220.922 142.551 224.172 141.701 226.972 140.001C229.772 138.201 231.972 135.801 233.572 132.801C235.272 129.801 236.122 126.351 236.122 122.451V105.201C236.122 99.5012 234.922 95.4012 232.522 92.9012C230.122 90.4012 226.172 89.1512 220.672 89.1512C217.472 89.1512 214.122 89.5512 210.622 90.3512C207.222 91.1512 203.672 92.5012 199.972 94.4012C198.272 95.2012 196.822 95.4512 195.622 95.1512C194.422 94.8512 193.472 94.2012 192.772 93.2012C192.072 92.1012 191.672 90.9512 191.572 89.7512C191.572 88.4512 191.872 87.2012 192.472 86.0012C193.172 84.8012 194.322 83.9012 195.922 83.3012C200.322 81.2012 204.672 79.7012 208.972 78.8012C213.272 77.9012 217.322 77.4512 221.122 77.4512C227.822 77.4512 233.322 78.5012 237.622 80.6012C242.022 82.7012 245.272 85.9012 247.372 90.2012C249.472 94.5012 250.522 100.051 250.522 106.851V145.401C250.522 147.801 249.922 149.701 248.722 151.101C247.522 152.401 245.772 153.051 243.472 153.051C241.272 153.051 239.522 152.401 238.222 151.101C236.922 149.701 236.272 147.801 236.272 145.401V135.651H237.622C236.822 139.351 235.322 142.551 233.122 145.251C231.022 147.851 228.372 149.851 225.172 151.251C221.972 152.651 218.322 153.351 214.222 153.351Z" fill="url(#paint6_linear_1017_1186)"/>
<path d="M111.896 153.051C109.496 153.051 107.646 152.401 106.346 151.101C105.046 149.701 104.396 147.801 104.396 145.401V52.8512C104.396 50.3512 105.046 48.4512 106.346 47.1512C107.646 45.8512 109.496 45.2012 111.896 45.2012C114.296 45.2012 116.146 45.8512 117.446 47.1512C118.846 48.4512 119.546 50.3512 119.546 52.8512V94.4012H117.446C119.646 88.8012 123.096 84.6012 127.796 81.8012C132.496 78.9012 137.896 77.4512 143.996 77.4512C149.796 77.4512 154.596 78.5512 158.396 80.7512C162.296 82.8512 165.196 86.1012 167.096 90.5012C168.996 94.8012 169.946 100.251 169.946 106.851V145.401C169.946 147.801 169.296 149.701 167.996 151.101C166.696 152.401 164.846 153.051 162.446 153.051C159.946 153.051 158.046 152.401 156.746 151.101C155.446 149.701 154.796 147.801 154.796 145.401V107.751C154.796 101.451 153.546 96.8512 151.046 93.9512C148.646 91.0512 144.846 89.6012 139.646 89.6012C133.546 89.6012 128.646 91.5012 124.946 95.3012C121.346 99.1012 119.546 104.201 119.546 110.601V145.401C119.546 150.501 116.996 153.051 111.896 153.051Z" fill="url(#paint7_linear_1017_1186)"/>
<path d="M47.9856 153.35C43.3856 153.35 38.8856 153 34.4856 152.3C30.0856 151.6 25.9356 150.55 22.0356 149.15C18.1356 147.65 14.6356 145.85 11.5356 143.75C10.0356 142.65 8.98557 141.4 8.38557 140C7.88557 138.6 7.73557 137.25 7.93557 135.95C8.23557 134.55 8.83557 133.35 9.73557 132.35C10.6356 131.35 11.7356 130.75 13.0356 130.55C14.3356 130.25 15.7856 130.65 17.3856 131.75C21.8856 134.65 26.6356 136.8 31.6356 138.2C36.6356 139.5 42.0856 140.15 47.9856 140.15C56.4856 140.15 62.7356 138.65 66.7356 135.65C70.8356 132.55 72.8856 128.55 72.8856 123.65C72.8856 119.65 71.4356 116.5 68.5356 114.2C65.6356 111.8 60.7856 109.9 53.9856 108.5L37.9356 105.2C28.4356 103.2 21.3356 99.9004 16.6356 95.3004C12.0356 90.7004 9.73557 84.5004 9.73557 76.7004C9.73557 72.0004 10.6856 67.7004 12.5856 63.8004C14.5856 59.9004 17.3356 56.5504 20.8356 53.7504C24.3356 50.8504 28.5356 48.6504 33.4356 47.1504C38.3356 45.6504 43.6856 44.9004 49.4856 44.9004C55.6856 44.9004 61.4856 45.7004 66.8856 47.3004C72.3856 48.9004 77.2856 51.3504 81.5856 54.6504C82.8856 55.5504 83.7356 56.7004 84.1356 58.1004C84.6356 59.4004 84.7356 60.7004 84.4356 62.0004C84.2356 63.3004 83.6856 64.4004 82.7856 65.3004C81.8856 66.2004 80.7356 66.7504 79.3356 66.9504C77.9356 67.0504 76.3856 66.5504 74.6856 65.4504C70.7856 62.8504 66.7856 61.0004 62.6856 59.9004C58.6856 58.7004 54.2356 58.1004 49.3356 58.1004C44.4356 58.1004 40.1356 58.8504 36.4356 60.3504C32.8356 61.8504 30.0356 63.9504 28.0356 66.6504C26.1356 69.3504 25.1856 72.5504 25.1856 76.2504C25.1856 80.4504 26.5356 83.8004 29.2356 86.3004C31.9356 88.8004 36.4356 90.7004 42.7356 92.0004L58.6356 95.3004C68.6356 97.4004 76.0856 100.65 80.9856 105.05C85.8856 109.45 88.3356 115.3 88.3356 122.6C88.3356 127.3 87.3856 131.55 85.4856 135.35C83.5856 139.05 80.8856 142.25 77.3856 144.95C73.8856 147.65 69.6356 149.75 64.6356 151.25C59.7356 152.65 54.1856 153.35 47.9856 153.35Z" fill="url(#paint8_linear_1017_1186)"/>
<defs>
<linearGradient id="paint0_linear_1017_1186" x1="648.5" y1="35.5012" x2="-52.9999" y2="152.001" gradientUnits="userSpaceOnUse">
<stop stop-color="#8A1BF7"/>
<stop offset="0.141771" stop-color="#F6997F"/>
<stop offset="1" stop-color="white"/>
</linearGradient>
<linearGradient id="paint1_linear_1017_1186" x1="648.5" y1="35.5011" x2="-53.0001" y2="152.001" gradientUnits="userSpaceOnUse">
<stop stop-color="#8A1BF7"/>
<stop offset="0.141771" stop-color="#F6997F"/>
<stop offset="1" stop-color="white"/>
</linearGradient>
<linearGradient id="paint2_linear_1017_1186" x1="648.5" y1="35.5013" x2="-52.9999" y2="152.001" gradientUnits="userSpaceOnUse">
<stop stop-color="#8A1BF7"/>
<stop offset="0.141771" stop-color="#F6997F"/>
<stop offset="1" stop-color="white"/>
</linearGradient>
<linearGradient id="paint3_linear_1017_1186" x1="648.5" y1="35.5013" x2="-52.9999" y2="152.001" gradientUnits="userSpaceOnUse">
<stop stop-color="#8A1BF7"/>
<stop offset="0.141771" stop-color="#F6997F"/>
<stop offset="1" stop-color="white"/>
</linearGradient>
<linearGradient id="paint4_linear_1017_1186" x1="648.5" y1="35.5013" x2="-52.9999" y2="152.001" gradientUnits="userSpaceOnUse">
<stop stop-color="#8A1BF7"/>
<stop offset="0.141771" stop-color="#F6997F"/>
<stop offset="1" stop-color="white"/>
</linearGradient>
<linearGradient id="paint5_linear_1017_1186" x1="648.5" y1="35.5008" x2="-53" y2="152.001" gradientUnits="userSpaceOnUse">
<stop stop-color="#8A1BF7"/>
<stop offset="0.141771" stop-color="#F6997F"/>
<stop offset="1" stop-color="white"/>
</linearGradient>
<linearGradient id="paint6_linear_1017_1186" x1="648.5" y1="35.5013" x2="-52.9999" y2="152.001" gradientUnits="userSpaceOnUse">
<stop stop-color="#8A1BF7"/>
<stop offset="0.141771" stop-color="#F6997F"/>
<stop offset="1" stop-color="white"/>
</linearGradient>
<linearGradient id="paint7_linear_1017_1186" x1="648.5" y1="35.5013" x2="-53.0001" y2="152.001" gradientUnits="userSpaceOnUse">
<stop stop-color="#8A1BF7"/>
<stop offset="0.141771" stop-color="#F6997F"/>
<stop offset="1" stop-color="white"/>
</linearGradient>
<linearGradient id="paint8_linear_1017_1186" x1="648.5" y1="35.5004" x2="-53" y2="152" gradientUnits="userSpaceOnUse">
<stop stop-color="#8A1BF7"/>
<stop offset="0.141771" stop-color="#F6997F"/>
<stop offset="1" stop-color="white"/>
</linearGradient>
</defs>
</svg>